# xmcd
#
# Track frame offsets:
#	150
#	15015
#	30517
#	43405
#	64435
#	76617
#	93795
#	107992
#	118589
#	129980
#	145990
#	161677
#	172052
#	181795
#	196510
#	223649
#
# Disc length: 2994 seconds
#
# Revision: 0
# Processed by: cddbd v1.5.2PL0 Copyright (c) Steve Scherf et al.
# Submitted via: audiograbber 1.83.01
#
DISCID=cd0bb010
DTITLE=Sound Choice - SC8739
DYEAR=1900
DGENRE=Karaoke
TTITLE0=Cledus T Judd - How Do You Milk A Cow
TTITLE1=Confederate Railroad - Trashy Women
TTITLE2=Rodney Carrington - More Of A Man
TTITLE3=Cledus T Judd - Plow Boy
TTITLE4=Confederate Railroad - Big One
TTITLE5=Ray Stevens - Osama Yo Mama
TTITLE6=Rodney Carrington - Great To Be A Man
TTITLE7=Pinkard and Bowden - Folk Music (Libyan On A Jet Plan)
TTITLE8=Pinkard and Bowden - She Thinks I Steal Cars
TTITLE9=Pinkard and Bowden - Mama She's Lazy
TTITLE10=Confederate Railroad - I Hate Rap
TTITLE11=Rodney Carrington - Fred
TTITLE12=Rodney Carrington - Morning Wood
TTITLE13=Cledus T Judd - Cledus The Karaoke King
TTITLE14=Cledus T Judd - Did I Shave My Back For This?
TTITLE15=Data Track - Data Track
EXTD=
EXTT0=
EXTT1=
EXTT2=
EXTT3=
EXTT4=
EXTT5=
EXTT6=
EXTT7=
EXTT8=
EXTT9=
EXTT10=
EXTT11=
EXTT12=
EXTT13=
EXTT14=
EXTT15=
PLAYORDER=
